<svg id="svg" xmlns="http://www.w3.org/2000/svg" xmlns:xlink="http://www.w3.org/1999/xlink" width="400" height="367.816091954023" viewBox="0, 0, 400,367.816091954023"><g id="svgg"><path id="path0" d="M162.042 72.526 C 154.038 74.559,153.172 75.514,153.977 81.416 C 154.581 85.849,155.721 86.567,163.215 87.231 C 173.257 88.122,176.756 86.617,176.756 81.407 C 176.756 73.135,171.689 70.077,162.042 72.526 M240.186 74.840 C 239.740 75.892,239.574 78.220,239.868 79.310 C 240.020 79.872,240.376 81.365,240.660 82.628 C 241.587 86.746,243.068 88.813,244.860 88.490 C 246.424 88.207,246.409 88.078,244.752 87.569 C 242.857 86.987,242.239 86.279,242.007 84.424 C 241.758 82.430,241.942 82.269,242.850 83.684 C 244.383 86.073,245.005 86.488,246.403 86.054 C 248.030 85.549,248.030 85.224,246.402 84.564 C 244.395 83.749,243.808 82.997,243.459 80.794 C 242.900 77.270,243.213 76.609,244.747 78.078 C 245.533 78.831,245.940 78.758,245.437 77.954 C 244.980 77.222,242.438 75.607,241.742 75.607 C 240.912 75.607,240.863 75.808,241.268 77.529 C 241.683 79.296,241.736 80.460,241.400 80.460 C 241.068 80.460,240.815 79.170,240.622 76.501 C 240.483 74.563,240.414 74.302,240.186 74.840 M173.301 79.240 C 173.907 81.280,173.820 82.908,173.064 83.664 C 171.991 84.737,159.600 84.375,158.495 83.238 C 158.318 83.057,158.553 83.032,159.244 83.159 C 160.107 83.318,165.072 83.379,167.050 83.255 C 167.401 83.233,168.493 83.297,169.476 83.398 C 172.368 83.695,173.285 82.512,172.747 79.176 C 172.458 77.380,172.759 77.414,173.301 79.240 M179.835 81.125 C 180.319 81.632,182.240 83.189,184.103 84.587 C 188.063 87.558,188.280 87.834,188.443 90.124 C 188.720 93.985,186.432 95.880,181.672 95.734 C 178.623 95.641,178.142 95.844,175.264 98.446 C 173.036 100.460,171.629 101.091,170.034 100.792 C 169.432 100.679,167.875 100.947,164.953 101.665 C 162.636 102.234,159.315 102.902,157.573 103.149 L 154.406 103.597 153.814 104.736 C 151.909 108.399,155.505 112.640,159.003 110.856 C 159.878 110.410,169.834 107.872,172.487 107.418 C 173.020 107.327,174.619 107.388,176.042 107.554 C 180.912 108.120,187.529 107.030,191.826 104.953 C 196.107 102.884,197.460 102.624,200.345 103.313 C 202.245 103.767,202.329 103.869,200.975 104.084 C 194.340 105.138,193.545 105.644,193.777 108.667 C 194.090 112.743,192.370 114.474,186.588 115.905 C 177.971 118.037,168.898 122.570,164.240 127.069 C 163.046 128.223,160.780 130.224,159.205 131.517 C 157.629 132.809,156.082 134.235,155.766 134.686 C 155.451 135.136,154.036 136.941,152.623 138.697 C 149.483 142.599,148.303 144.454,146.857 147.760 C 145.078 151.828,144.062 152.721,140.872 153.020 C 139.746 153.125,137.618 153.551,136.143 153.966 C 130.928 155.433,129.957 155.333,127.327 153.059 C 122.903 149.235,118.922 146.883,115.331 145.972 C 108.082 144.133,100.242 143.682,95.019 144.803 C 93.685 145.089,91.242 145.609,89.592 145.957 C 84.767 146.976,83.202 148.092,81.570 151.671 C 81.077 152.754,80.587 153.812,80.481 154.023 C 80.132 154.719,77.809 155.258,73.339 155.680 C 62.997 156.658,56.598 160.181,47.765 169.759 C 45.736 171.960,44.574 172.979,42.990 173.950 C 39.764 175.926,38.906 177.967,40.187 180.610 C 41.602 183.526,47.403 183.449,50.128 180.477 C 51.515 178.963,58.024 178.540,61.536 179.734 C 63.870 180.528,63.839 180.677,60.647 183.959 C 55.751 188.994,49.638 197.961,48.895 201.198 C 48.804 201.593,48.296 203.467,47.765 205.364 C 45.952 211.844,45.164 217.376,45.073 224.265 L 45.007 229.246 43.992 229.540 C 43.433 229.702,41.639 229.956,40.003 230.106 C 35.352 230.531,33.926 231.192,33.570 233.090 C 33.068 235.765,35.140 237.567,40.034 238.710 C 46.899 240.313,47.435 240.746,49.050 245.977 C 49.945 248.874,53.887 256.765,55.687 259.259 C 56.244 260.032,57.247 261.489,57.916 262.498 C 61.246 267.521,68.280 273.737,73.691 276.438 C 85.722 282.443,100.501 280.578,110.522 271.790 C 111.252 271.149,112.278 270.281,112.802 269.860 C 113.326 269.438,114.355 268.283,115.088 267.292 C 117.862 263.543,118.895 263.074,123.030 263.692 C 124.553 263.920,127.580 264.285,129.757 264.505 C 131.935 264.724,135.958 265.235,138.697 265.641 C 147.201 266.900,149.119 267.016,153.308 266.526 C 157.801 266.000,162.293 265.926,164.496 266.341 C 178.373 268.954,186.656 268.317,190.956 264.304 L 192.529 262.836 195.179 262.573 C 200.564 262.037,202.495 261.486,204.181 260.002 L 205.338 258.984 209.567 258.742 C 215.366 258.410,215.930 258.252,219.668 255.918 C 223.065 253.798,224.729 251.456,225.387 247.873 C 225.591 246.760,225.933 245.045,226.146 244.061 C 226.359 243.078,226.720 240.550,226.948 238.444 C 227.401 234.261,227.711 232.559,228.259 231.247 C 228.965 229.559,229.860 225.221,230.138 222.153 C 230.490 218.249,230.642 217.686,232.346 213.955 C 233.108 212.288,233.896 210.277,234.097 209.485 C 235.417 204.308,235.772 202.346,236.020 198.851 C 236.235 195.834,236.532 194.042,237.420 190.421 C 239.099 183.570,239.920 178.867,239.598 177.942 C 239.257 176.964,239.263 175.809,239.611 175.595 C 240.586 174.992,244.165 179.438,244.183 181.274 C 244.186 181.582,244.837 182.731,245.630 183.829 C 248.081 187.224,248.399 188.119,248.431 191.728 C 248.463 195.286,248.683 195.775,251.447 198.436 C 253.258 200.180,253.333 200.873,251.839 202.093 C 251.270 202.557,249.813 204.317,248.602 206.003 C 247.390 207.688,245.849 209.778,245.177 210.645 C 243.407 212.930,238.603 222.680,237.333 226.564 C 235.749 231.409,234.718 235.195,234.482 237.037 C 234.365 237.950,234.021 240.122,233.716 241.863 C 232.753 247.373,234.023 248.599,237.588 245.599 C 239.539 243.957,239.971 245.017,239.751 250.911 C 239.349 261.728,241.952 273.980,247.062 285.313 C 251.299 294.711,254.276 299.245,261.634 307.511 C 263.011 309.057,264.908 310.899,265.849 311.605 C 266.790 312.311,268.135 313.351,268.838 313.917 C 276.840 320.364,288.981 325.789,298.948 327.370 C 302.357 327.911,313.029 327.739,315.281 327.106 C 316.099 326.877,317.647 326.507,318.722 326.285 C 324.807 325.028,334.232 320.475,338.138 316.904 C 338.797 316.302,340.159 315.209,341.166 314.474 C 343.185 313.001,345.609 310.529,346.892 308.635 C 347.350 307.960,348.117 306.965,348.597 306.424 C 359.266 294.404,364.005 269.393,359.372 249.553 C 356.366 236.675,349.999 224.508,340.447 213.382 C 336.301 208.554,335.710 208.003,330.894 204.485 C 319.923 196.471,311.273 192.793,305.173 193.548 C 302.679 193.856,300.748 193.728,296.799 192.994 C 287.610 191.285,277.818 191.978,270.117 194.882 C 265.677 196.556,264.645 196.429,268.184 194.645 C 274.673 191.373,289.013 189.954,297.446 191.749 C 302.297 192.781,306.233 192.681,308.092 191.478 C 308.619 191.137,308.840 191.137,310.089 191.478 C 313.490 192.407,319.760 190.772,317.953 189.427 C 317.561 189.135,310.856 187.330,306.513 186.347 C 300.960 185.089,292.701 184.601,287.229 185.206 C 278.745 186.145,275.893 184.431,274.232 177.395 C 273.736 175.298,272.237 172.044,270.771 169.885 C 269.883 168.577,269.732 168.161,269.732 167.017 C 269.732 165.373,269.172 164.171,267.345 161.889 C 265.493 159.578,264.908 158.152,264.941 156.032 C 264.976 153.688,264.487 152.949,261.815 151.313 C 259.418 149.845,258.704 149.092,258.241 147.547 C 258.067 146.966,257.367 145.381,256.686 144.023 C 254.510 139.687,254.456 138.486,256.327 136.009 C 259.494 131.816,259.483 125.956,256.297 119.046 C 252.361 110.514,246.479 112.731,243.823 123.748 C 243.505 125.066,244.453 123.924,245.806 121.358 C 247.135 118.837,248.649 117.241,249.711 117.241 C 250.338 117.241,250.284 117.342,248.804 118.924 C 246.038 121.881,244.555 124.585,246.481 123.162 C 247.639 122.305,247.908 122.429,247.771 123.755 C 247.600 125.408,244.643 129.225,243.464 129.314 C 242.761 129.367,242.664 129.055,244.497 132.650 C 246.085 135.764,246.574 136.376,250.024 139.559 C 250.729 140.209,251.587 141.507,252.527 143.344 C 253.812 145.856,255.365 147.893,255.995 147.893 C 256.325 147.893,256.065 147.163,254.502 143.705 C 252.631 139.563,253.147 139.306,255.140 143.386 C 257.531 148.283,258.079 151.045,256.683 151.162 C 255.430 151.267,254.331 150.020,253.013 146.999 C 251.795 144.207,249.583 140.296,249.122 140.119 C 248.361 139.827,249.068 142.896,250.324 145.338 C 250.722 146.111,251.126 147.031,251.223 147.382 C 251.513 148.431,252.386 149.721,253.861 151.279 C 255.556 153.068,255.480 153.186,253.072 152.510 C 252.032 152.218,250.728 151.977,250.175 151.974 C 246.582 151.954,244.033 148.060,243.741 142.146 C 243.581 138.924,243.767 139.117,244.949 143.401 C 245.547 145.566,246.220 147.375,246.759 148.264 C 248.302 150.810,248.373 150.180,247.126 145.009 C 246.067 140.615,246.045 140.293,246.787 140.184 C 247.875 140.024,247.507 139.476,245.102 137.677 C 241.183 134.744,240.449 133.463,240.176 129.081 C 239.768 122.538,241.246 117.573,244.012 116.191 C 244.601 115.897,245.600 115.155,246.232 114.542 L 247.382 113.428 250.421 113.146 C 255.132 112.708,257.596 111.406,258.106 109.086 C 258.416 107.675,256.140 105.548,252.107 103.479 C 251.054 102.939,249.843 102.312,249.416 102.087 C 248.964 101.848,247.384 101.561,245.621 101.397 C 240.834 100.951,240.160 100.339,242.022 98.126 C 243.832 95.975,242.657 93.406,238.697 90.855 C 237.714 90.222,236.564 89.337,236.143 88.890 C 233.128 85.691,229.108 86.276,225.623 90.421 C 223.122 93.397,222.432 95.391,222.089 100.639 C 221.764 105.615,219.075 108.449,214.386 108.757 L 212.552 108.877 210.043 106.482 C 208.663 105.165,206.557 103.242,205.363 102.210 C 201.628 98.981,201.571 98.842,202.554 95.402 C 203.523 92.017,202.999 89.341,201.274 88.861 C 200.925 88.764,198.559 88.673,196.018 88.659 C 190.454 88.628,189.406 88.388,187.883 86.794 C 186.737 85.594,181.761 81.609,180.332 80.746 C 179.016 79.951,178.840 80.085,179.835 81.125 M184.858 103.810 C 184.329 104.211,181.897 104.603,177.471 105.001 C 175.651 105.164,173.738 105.498,172.925 105.793 C 172.152 106.074,170.007 106.635,168.159 107.040 C 166.311 107.445,164.304 107.947,163.699 108.155 C 163.094 108.364,162.555 108.489,162.500 108.435 C 161.517 107.451,173.024 104.598,180.587 103.950 C 182.484 103.788,184.084 103.609,184.142 103.552 C 184.201 103.495,184.488 103.452,184.781 103.456 C 185.282 103.464,185.287 103.484,184.858 103.810 M245.319 104.406 C 245.066 104.792,244.403 105.913,243.847 106.897 C 242.117 109.953,241.120 110.970,239.336 111.497 L 238.697 111.685 239.246 111.079 C 239.548 110.745,240.372 109.496,241.076 108.301 C 242.295 106.237,243.709 104.615,244.828 104.000 C 245.663 103.541,245.808 103.661,245.319 104.406 M205.060 104.732 C 205.991 105.300,206.882 106.966,206.891 108.157 C 206.906 110.218,208.293 111.677,212.005 113.536 C 214.854 114.963,215.140 115.232,216.335 117.599 C 218.132 121.161,219.083 121.523,218.821 118.546 C 218.438 114.203,217.607 112.935,214.452 111.884 C 211.785 110.996,211.318 110.561,213.218 110.736 C 213.886 110.797,215.210 110.916,216.161 111.000 C 218.208 111.181,218.321 111.333,219.534 115.529 C 220.523 118.952,221.313 120.144,222.985 120.737 C 224.514 121.280,224.141 121.515,221.680 121.558 C 219.787 121.592,218.433 121.084,216.378 119.572 C 213.833 117.699,213.151 117.418,210.983 117.352 C 208.362 117.272,207.812 117.008,207.021 115.446 C 206.210 113.847,205.772 113.918,205.670 115.665 C 205.594 116.958,205.309 117.367,205.016 116.603 C 204.935 116.392,204.664 116.219,204.414 116.219 C 202.688 116.215,201.365 114.039,200.385 109.595 L 199.741 106.673 200.445 105.922 C 202.074 104.186,203.543 103.807,205.060 104.732 M253.578 106.001 C 256.727 107.921,255.670 112.070,252.063 111.952 C 247.314 111.797,247.438 111.777,242.566 113.440 C 240.017 114.309,236.280 115.705,234.262 116.540 L 230.592 118.059 229.614 117.618 C 226.855 116.373,227.069 115.688,230.774 113.889 C 232.777 112.916,233.625 112.331,234.674 111.199 C 235.412 110.403,236.015 109.856,236.014 109.984 C 236.012 110.518,234.964 111.880,234.284 112.231 C 233.571 112.600,232.724 113.410,233.051 113.410 C 233.141 113.410,234.543 113.123,236.168 112.771 C 237.792 112.420,239.434 112.133,239.817 112.133 C 240.199 112.133,241.937 111.731,243.678 111.239 C 247.082 110.278,248.761 110.135,249.868 110.712 C 250.777 111.186,250.822 111.074,250.757 108.508 C 250.681 105.481,251.513 104.742,253.578 106.001 M191.758 119.533 C 197.129 120.831,201.920 123.653,196.869 122.544 C 195.852 122.320,194.789 122.069,194.508 121.985 C 194.227 121.900,194.368 122.005,194.820 122.216 C 196.463 122.984,197.050 125.285,196.077 127.144 C 195.413 128.411,192.363 131.539,191.947 131.379 C 191.025 131.026,191.280 129.784,192.560 128.385 L 193.231 127.652 192.360 128.094 C 188.543 130.030,181.988 126.871,183.486 123.818 C 183.930 122.912,183.597 122.350,182.615 122.350 C 181.441 122.350,175.907 123.475,174.378 124.024 C 172.292 124.773,171.149 124.867,171.664 124.246 C 172.328 123.446,176.256 121.811,182.759 119.629 C 185.721 118.635,187.941 118.611,191.758 119.533 M254.693 124.345 C 254.711 125.425,254.801 127.114,254.894 128.097 L 255.063 129.885 255.401 128.736 C 255.807 127.359,255.847 126.289,255.569 124.345 C 255.122 121.220,256.239 121.631,257.251 124.963 C 257.990 127.396,257.843 130.819,256.911 132.845 C 256.139 134.524,253.372 137.814,253.101 137.375 C 252.959 137.145,252.579 137.149,251.485 137.394 C 249.219 137.901,247.478 137.035,246.863 135.095 C 246.763 134.780,246.283 133.901,245.797 133.141 C 244.676 131.389,244.696 131.379,247.207 132.465 C 250.446 133.865,251.728 133.897,252.972 132.609 C 254.429 131.099,254.158 130.673,251.846 130.839 L 250.063 130.966 250.676 130.398 C 251.952 129.215,253.382 126.286,252.991 125.653 C 252.879 125.473,252.509 125.668,251.965 126.195 C 251.304 126.836,250.834 127.047,249.856 127.141 C 247.338 127.383,247.851 126.523,251.852 123.798 C 254.715 121.849,254.653 121.837,254.693 124.345 M216.207 128.608 C 216.453 129.451,217.785 132.324,219.169 134.994 C 220.552 137.663,222.599 141.916,223.717 144.444 C 228.663 155.635,229.998 158.279,231.893 160.641 L 232.796 161.767 232.375 164.217 C 231.841 167.325,230.838 170.811,229.887 172.861 C 228.285 176.311,228.628 173.845,230.321 169.734 C 231.979 165.707,232.094 163.776,230.789 161.852 C 230.436 161.332,229.746 159.936,229.255 158.751 C 228.764 157.565,227.109 153.919,225.578 150.647 C 224.046 147.376,221.692 142.285,220.346 139.334 C 219.000 136.383,217.377 133.001,216.739 131.817 C 214.273 127.242,213.785 125.123,214.879 123.730 L 215.453 122.997 215.607 125.036 C 215.691 126.158,215.961 127.765,216.207 128.608 M226.479 125.060 C 227.262 125.340,227.747 125.755,228.318 126.633 C 229.156 127.922,229.172 128.328,228.354 127.588 C 227.705 127.000,227.708 127.216,228.367 128.509 C 229.168 130.079,228.826 130.249,227.699 128.843 C 225.744 126.403,224.327 125.160,223.500 125.160 C 222.530 125.160,222.535 125.388,223.525 126.325 C 225.450 128.147,227.968 132.296,230.026 137.037 C 230.759 138.723,231.832 141.174,232.412 142.484 C 232.992 143.795,233.712 145.634,234.011 146.571 C 234.600 148.415,234.965 149.024,236.836 151.290 C 237.508 152.105,238.059 152.814,238.059 152.866 C 238.059 153.315,237.609 153.855,236.951 154.195 L 236.161 154.604 235.117 153.450 C 234.386 152.643,233.243 150.546,231.305 146.455 C 229.782 143.242,227.700 138.946,226.677 136.909 C 225.655 134.872,224.737 132.918,224.636 132.567 C 224.535 132.216,223.830 130.682,223.068 129.158 C 220.848 124.719,221.921 123.430,226.479 125.060 M235.574 130.795 L 238.104 134.994 237.985 137.420 C 237.899 139.157,237.614 140.713,236.980 142.892 L 236.095 145.937 235.919 144.219 C 235.688 141.965,234.699 138.882,233.703 137.312 C 231.906 134.480,231.180 125.974,232.780 126.508 C 232.925 126.556,234.183 128.485,235.574 130.795 M223.199 130.883 C 223.947 132.582,224.901 134.834,225.320 135.888 C 225.739 136.941,226.370 138.321,226.723 138.953 C 227.075 139.585,227.880 141.194,228.513 142.529 C 229.145 143.863,230.158 145.990,230.765 147.254 C 231.371 148.519,232.398 150.667,233.046 152.030 C 233.859 153.737,234.496 154.712,235.095 155.170 C 235.574 155.535,236.031 156.093,236.110 156.410 C 236.297 157.154,237.582 157.758,239.772 158.131 C 243.098 158.699,242.555 159.259,238.677 159.259 C 235.575 159.259,234.597 158.328,232.861 153.720 C 232.527 152.833,231.723 151.051,231.075 149.760 C 230.426 148.468,229.499 146.457,229.014 145.290 C 228.530 144.122,226.925 140.669,225.448 137.616 C 222.575 131.679,220.937 127.819,220.958 127.044 C 220.981 126.240,221.691 127.457,223.199 130.883 M184.410 138.558 C 184.579 138.763,184.645 139.049,184.555 139.195 C 184.444 139.374,185.017 139.407,186.321 139.296 C 191.182 138.885,186.832 140.514,179.689 141.780 C 173.925 142.801,172.893 143.121,171.155 144.422 C 170.037 145.258,170.054 145.300,170.524 142.810 C 170.912 140.753,170.870 140.139,170.375 140.634 C 170.082 140.927,168.329 146.214,168.323 146.822 C 168.316 147.639,167.932 147.973,167.355 147.664 C 166.493 147.202,166.436 146.466,167.162 145.167 C 167.526 144.516,167.769 143.929,167.701 143.861 C 167.535 143.695,164.781 144.828,164.586 145.143 C 164.230 145.720,162.217 146.389,161.689 146.106 C 160.679 145.566,161.337 143.262,162.712 142.527 C 164.566 141.534,172.541 139.487,174.713 139.446 C 175.485 139.431,177.382 139.156,178.927 138.833 C 182.315 138.127,183.982 138.043,184.410 138.558 M215.505 139.124 C 220.941 142.310,222.017 147.394,217.521 148.652 C 212.770 149.983,210.215 145.874,212.205 140.102 C 212.723 138.601,212.730 138.593,212.573 139.719 C 211.707 145.932,213.923 148.960,217.752 146.796 C 219.537 145.787,219.174 144.639,215.859 140.802 C 213.549 138.129,213.513 137.957,215.505 139.124 M240.618 147.327 C 241.623 150.438,242.794 151.986,244.817 152.879 L 246.083 153.438 244.893 153.617 C 239.510 154.424,236.819 149.081,238.986 141.890 L 239.448 140.358 239.760 142.997 C 239.931 144.449,240.317 146.397,240.618 147.327 M188.953 152.651 C 190.550 153.079,189.474 153.355,184.077 153.899 C 181.947 154.113,179.055 154.458,177.650 154.664 C 175.149 155.032,164.999 156.146,161.146 156.475 C 159.178 156.643,157.665 156.323,158.771 155.972 C 159.571 155.719,169.227 154.519,172.651 154.248 C 174.397 154.110,178.017 153.667,180.697 153.265 C 185.567 152.533,187.871 152.362,188.953 152.651 M246.555 156.577 C 247.859 157.153,252.288 156.910,258.404 155.926 C 260.998 155.509,261.558 155.553,261.558 156.177 C 261.558 156.838,260.597 157.116,257.507 157.351 C 255.858 157.476,253.830 157.756,252.999 157.972 C 247.724 159.346,243.608 158.028,242.811 154.711 L 242.639 153.994 244.001 155.021 C 244.749 155.586,245.899 156.286,246.555 156.577 M191.315 154.415 C 191.315 154.760,188.484 155.701,184.036 156.832 C 180.775 157.662,178.135 158.519,175.990 159.445 C 174.234 160.203,171.164 161.443,169.169 162.202 C 167.173 162.961,165.580 163.622,165.628 163.670 C 165.831 163.872,169.132 162.840,172.751 161.442 C 180.327 158.517,186.620 156.799,189.560 156.854 L 190.677 156.874 189.806 157.254 C 189.327 157.463,186.917 158.087,184.451 158.642 C 178.397 160.004,174.297 161.247,172.362 162.309 C 169.400 163.935,162.857 165.773,160.032 165.773 C 159.008 165.773,158.036 166.677,158.631 167.076 C 159.117 167.402,171.714 167.162,172.923 166.803 C 175.778 165.957,179.784 167.710,179.200 169.550 C 178.879 170.560,177.466 170.410,175.823 169.192 C 174.268 168.038,166.458 167.772,161.855 168.717 C 158.373 169.431,156.041 171.150,152.693 175.471 C 151.763 176.672,151.601 176.357,152.262 174.630 C 152.803 173.216,153.927 171.954,156.705 169.641 L 157.727 168.790 156.450 169.500 C 155.747 169.890,154.543 170.588,153.773 171.051 C 152.520 171.805,152.235 171.877,151.061 171.739 C 148.352 171.421,146.561 172.708,144.067 176.766 C 141.921 180.259,141.681 180.389,142.654 177.530 C 144.232 172.889,146.607 170.786,149.777 171.221 C 151.525 171.460,153.177 170.517,156.178 167.567 C 158.610 165.175,160.773 163.739,161.955 163.732 C 162.963 163.725,169.508 161.272,174.148 159.162 C 179.800 156.591,191.315 153.407,191.315 154.415 M218.291 155.326 C 219.568 156.526,219.683 159.396,218.501 160.577 C 216.577 162.501,213.075 159.760,213.636 156.770 C 214.024 154.701,216.732 153.861,218.291 155.326 M227.586 158.378 C 227.586 159.670,225.584 161.560,224.313 161.469 C 222.682 161.351,222.094 162.421,220.912 167.665 C 220.268 170.523,220.061 171.075,219.424 171.635 C 218.937 172.063,218.542 172.794,218.270 173.772 C 217.498 176.541,215.470 177.807,212.859 177.152 C 212.180 176.982,212.217 176.940,213.803 176.094 C 215.998 174.922,217.134 173.768,217.242 172.601 C 217.747 167.170,219.581 163.452,223.032 160.866 C 226.525 158.247,227.586 157.667,227.586 158.378 M77.870 158.585 C 78.319 158.711,78.625 159.160,79.072 160.350 C 80.893 165.196,85.784 170.423,89.886 171.910 C 92.930 173.013,93.116 173.164,91.443 173.168 C 88.746 173.174,86.673 172.528,82.120 170.260 C 76.396 167.409,73.307 166.827,66.560 167.329 C 59.805 167.831,56.400 169.090,49.707 173.560 L 48.966 174.055 49.256 173.512 C 51.985 168.414,68.161 163.982,75.188 166.407 C 80.887 168.374,83.260 167.087,78.289 164.725 C 71.889 161.684,57.877 164.445,50.749 170.152 C 49.850 170.872,49.289 171.004,49.656 170.410 C 50.220 169.498,54.888 166.396,57.357 165.293 C 62.371 163.054,69.626 161.835,72.797 162.698 C 76.428 163.687,79.973 163.429,77.714 162.340 C 73.124 160.128,62.530 160.604,57.344 163.254 C 55.141 164.380,56.205 163.362,58.953 161.714 C 63.498 158.988,73.444 157.343,77.870 158.585 M205.151 159.660 C 206.178 160.084,207.307 160.695,207.660 161.019 C 208.642 161.920,209.517 162.452,210.019 162.452 C 210.809 162.452,210.513 161.773,209.259 160.710 C 207.710 159.396,208.264 158.942,210.102 160.020 C 212.945 161.685,213.132 165.191,210.322 164.117 C 209.271 163.716,203.644 160.166,202.043 158.895 L 201.405 158.388 202.345 158.639 C 202.861 158.777,204.124 159.237,205.151 159.660 M189.911 159.145 C 189.068 159.404,187.436 159.862,186.284 160.164 C 183.809 160.813,182.359 161.682,181.655 162.941 C 181.028 164.061,180.701 165.655,181.053 165.872 C 181.198 165.962,181.379 165.613,181.471 165.066 C 181.671 163.885,181.738 163.788,183.014 162.837 L 184.036 162.076 183.116 163.350 C 180.854 166.480,181.329 166.904,187.551 167.311 C 193.849 167.722,195.175 168.074,194.255 169.091 C 193.585 169.831,195.242 171.441,198.607 173.319 C 201.261 174.800,202.810 176.121,202.810 176.903 C 202.810 177.209,202.585 177.159,201.724 176.663 C 201.127 176.318,199.667 175.504,198.480 174.853 C 195.894 173.434,194.306 172.174,193.293 170.738 C 192.547 169.679,192.534 169.673,190.588 169.528 C 189.513 169.448,187.197 168.974,185.441 168.474 C 181.334 167.306,181.348 167.306,181.630 168.519 C 181.932 169.820,181.931 173.096,181.629 172.784 C 180.703 171.830,180.168 164.163,180.906 162.425 C 181.918 160.042,185.263 158.708,190.294 158.681 L 191.443 158.675 189.911 159.145 M196.211 160.315 C 196.820 160.552,197.812 161.072,198.416 161.471 C 199.073 161.905,199.859 162.197,200.369 162.197 C 202.240 162.197,206.897 164.197,206.897 165.001 C 206.897 165.375,205.694 165.318,204.227 164.873 C 202.859 164.458,201.049 164.584,191.143 165.783 C 184.186 166.626,182.621 166.369,183.391 164.510 C 183.749 163.646,185.703 162.025,187.229 161.325 C 187.720 161.100,188.494 160.677,188.947 160.386 C 190.514 159.381,193.728 159.350,196.211 160.315 M180.587 161.435 C 180.587 162.523,178.690 163.503,175.466 164.080 C 168.312 165.360,168.140 164.561,175.066 162.221 C 177.157 161.515,179.111 160.769,179.408 160.565 C 180.010 160.152,180.587 160.578,180.587 161.435 M257.474 161.692 C 258.443 162.199,258.852 163.014,259.043 164.826 C 259.210 166.396,259.497 167.173,260.999 170.115 C 261.968 172.011,262.963 174.195,263.210 174.968 C 263.830 176.911,266.144 181.653,267.446 183.653 C 269.775 187.230,268.758 189.566,263.734 192.179 L 261.951 193.107 260.797 191.922 C 260.162 191.270,259.854 190.810,260.113 190.899 C 261.361 191.331,261.814 191.364,261.814 191.020 C 261.814 190.388,260.058 188.047,258.838 187.053 C 255.456 184.298,254.679 183.228,254.667 181.311 C 254.659 180.018,252.983 171.611,252.355 169.715 C 251.822 168.108,251.284 167.473,248.595 165.284 C 246.726 163.763,247.069 162.708,249.431 162.708 C 249.743 162.708,250.516 162.479,251.148 162.199 C 253.210 161.287,256.237 161.044,257.474 161.692 M225.799 166.603 C 225.800 167.481,225.519 169.636,225.176 171.392 C 224.832 173.148,224.308 176.113,224.011 177.981 C 223.490 181.259,222.559 184.829,222.499 183.780 C 222.444 182.818,223.538 174.587,224.009 172.414 C 224.268 171.220,224.679 169.064,224.923 167.625 C 225.423 164.666,225.798 164.230,225.799 166.603 M229.547 167.329 C 229.466 168.007,228.928 169.688,228.351 171.063 C 227.676 172.669,227.121 174.568,226.797 176.373 C 226.158 179.941,224.702 184.643,224.583 183.525 C 224.500 182.747,224.724 181.798,227.084 172.925 C 227.813 170.185,228.514 167.484,228.643 166.922 C 229.039 165.193,229.115 165.066,229.423 165.615 C 229.573 165.883,229.628 166.642,229.547 167.329 M247.733 166.139 C 250.233 167.432,252.501 172.263,252.958 177.267 L 253.109 178.927 252.518 176.756 C 251.460 172.871,250.262 170.395,247.986 167.387 C 246.670 165.649,246.657 165.583,247.733 166.139 M212.005 168.582 C 213.789 169.010,214.388 168.792,215.192 167.419 C 216.402 165.356,217.024 166.142,217.083 169.808 L 217.114 171.672 216.156 170.920 C 215.475 170.385,214.701 170.084,213.481 169.880 C 208.850 169.103,203.927 167.050,206.696 167.050 C 207.217 167.050,207.219 167.036,206.764 166.533 C 206.446 166.182,207.003 166.378,208.508 167.146 C 209.724 167.766,211.298 168.413,212.005 168.582 M165.784 171.141 C 169.315 172.533,171.635 174.463,173.953 177.938 C 174.691 179.044,175.494 180.179,175.738 180.460 C 175.982 180.741,176.384 181.596,176.633 182.360 C 177.716 185.692,179.833 185.655,182.829 182.252 C 184.158 180.742,184.335 180.833,183.514 182.603 C 182.475 184.846,182.799 184.795,184.719 182.414 C 185.401 181.568,185.704 183.680,185.074 184.897 C 184.519 185.972,183.979 186.301,182.673 186.361 C 182.018 186.391,180.965 186.608,180.335 186.842 C 177.457 187.912,175.548 186.659,173.321 182.238 C 169.873 175.392,166.532 172.542,161.954 172.542 C 159.406 172.542,158.456 173.107,154.890 176.748 C 151.893 179.809,150.772 180.524,146.300 182.230 C 144.932 182.752,143.736 183.303,143.642 183.455 C 143.540 183.621,143.591 183.658,143.769 183.548 C 144.551 183.065,145.057 183.652,145.135 185.132 C 145.216 186.687,145.477 186.931,146.726 186.617 C 147.257 186.484,147.297 186.360,147.184 185.181 L 147.060 183.891 148.110 184.059 C 149.066 184.212,149.230 184.153,149.930 183.404 C 150.859 182.410,151.088 182.717,150.898 184.700 C 150.644 187.344,145.866 190.283,144.385 188.706 C 142.123 186.296,142.412 181.609,144.822 181.609 C 147.297 181.609,152.077 178.589,153.843 175.909 C 157.069 171.015,161.239 169.350,165.784 171.141 M86.286 174.305 C 87.536 174.707,89.655 176.265,89.655 176.781 C 89.655 176.902,89.167 176.658,88.570 176.238 C 86.414 174.723,85.343 174.643,69.157 174.785 C 55.135 174.908,50.654 174.713,58.429 174.319 C 68.520 173.808,70.631 173.752,77.522 173.808 C 83.694 173.858,85.156 173.941,86.286 174.305 M204.384 174.862 C 205.956 175.675,207.363 177.239,207.772 178.630 C 207.986 179.355,208.624 180.696,209.189 181.609 C 210.353 183.490,210.550 184.973,209.765 185.942 L 209.313 186.501 208.615 185.951 C 207.966 185.441,207.944 185.363,208.300 184.854 C 208.862 184.053,208.772 183.086,208.035 182.001 C 207.679 181.475,207.230 180.591,207.039 180.036 C 206.508 178.495,205.412 177.078,203.779 175.822 C 202.965 175.195,202.299 174.632,202.299 174.570 C 202.299 174.300,203.669 174.492,204.384 174.862 M194.508 179.886 C 196.897 181.437,199.943 183.425,201.277 184.302 C 203.664 185.872,207.678 188.237,209.731 189.285 C 211.145 190.006,210.865 190.146,209.172 189.563 C 207.214 188.890,204.840 187.658,202.158 185.925 C 200.886 185.104,199.082 183.998,198.149 183.467 C 196.235 182.379,187.115 175.916,186.820 175.438 C 186.504 174.927,189.887 176.884,194.508 179.886 M101.533 177.284 C 102.516 177.424,106.539 177.635,110.473 177.752 C 118.188 177.982,119.382 178.182,120.574 179.451 L 121.162 180.077 120.543 180.739 C 118.808 182.596,117.628 182.559,113.622 180.524 L 110.479 178.927 108.369 178.992 C 107.208 179.028,105.655 179.075,104.917 179.098 C 104.179 179.121,101.909 179.102,99.872 179.056 C 93.629 178.915,91.264 180.421,91.852 184.163 C 92.054 185.452,91.546 184.634,91.169 183.065 C 90.445 180.047,92.695 177.886,97.190 177.282 C 99.322 176.996,99.518 176.996,101.533 177.284 M127.458 177.994 C 130.678 180.353,129.760 189.141,125.025 201.277 L 124.377 202.937 124.502 200.894 C 124.570 199.770,125.040 197.241,125.544 195.275 C 126.256 192.499,126.520 190.825,126.723 187.795 C 127.033 183.167,126.902 182.766,124.637 181.420 C 122.533 180.170,122.095 179.670,122.095 178.522 C 122.095 177.482,122.191 177.410,123.883 177.205 C 124.914 177.079,126.769 177.488,127.458 177.994 M218.646 178.115 C 218.646 180.900,217.489 182.375,215.303 182.375 C 212.058 182.375,211.496 181.748,214.178 181.121 C 216.408 180.600,216.392 180.341,214.134 180.403 C 212.208 180.455,211.443 180.299,211.813 179.928 C 212.075 179.666,215.679 179.288,216.509 179.435 C 217.251 179.567,217.339 179.504,217.720 178.550 C 218.174 177.416,218.646 177.194,218.646 178.115 M232.531 181.865 C 232.353 183.781,231.378 188.400,231.045 188.909 C 230.274 190.086,228.122 190.124,226.016 188.996 C 225.626 188.788,225.350 188.828,224.823 189.171 C 223.354 190.127,222.907 191.413,222.367 196.242 C 221.904 200.376,221.069 202.683,221.330 199.106 C 221.935 190.817,223.517 187.518,229.172 182.752 C 230.698 181.466,232.616 180.960,232.531 181.865 M237.936 182.950 C 237.605 185.993,235.371 195.865,235.079 195.573 C 235.030 195.524,235.623 192.358,236.397 188.538 C 237.170 184.718,237.803 181.538,237.803 181.473 C 237.803 181.407,237.872 181.354,237.956 181.354 C 238.040 181.354,238.031 182.072,237.936 182.950 M88.949 184.890 C 91.241 187.079,93.127 189.264,95.818 192.848 C 98.209 196.033,98.691 196.538,100.511 197.772 C 102.835 199.347,107.138 203.115,109.682 205.802 C 110.932 207.123,112.484 208.487,113.130 208.834 C 114.298 209.460,114.299 209.463,113.410 209.306 C 111.421 208.956,109.779 207.948,107.933 205.945 C 106.942 204.869,104.866 202.781,103.321 201.305 C 98.445 196.647,92.426 190.461,91.738 189.400 C 91.374 188.838,89.894 187.142,88.450 185.631 C 84.656 181.663,85.013 181.131,88.949 184.890 M192.338 185.173 C 193.251 185.728,194.781 186.595,195.739 187.100 C 196.697 187.606,198.881 188.918,200.592 190.016 C 206.512 193.816,207.634 194.155,209.115 192.586 C 209.541 192.135,210.283 191.739,211.048 191.555 C 212.498 191.207,212.871 191.374,211.837 191.909 C 211.438 192.115,210.374 192.827,209.473 193.490 L 207.835 194.697 206.323 194.276 C 204.201 193.686,202.336 192.680,199.234 190.451 C 197.759 189.391,195.606 188.045,194.451 187.459 C 192.400 186.420,190.294 184.870,190.294 184.399 C 190.294 184.003,190.615 184.124,192.338 185.173 M193.815 188.459 C 196.865 190.400,200.773 192.827,202.498 193.852 L 205.636 195.716 207.268 195.612 C 208.466 195.536,209.329 195.287,210.516 194.677 L 212.133 193.845 210.737 195.262 C 209.168 196.855,208.863 196.925,206.224 196.302 C 203.996 195.777,202.234 194.941,199.066 192.906 C 197.543 191.928,195.549 190.752,194.636 190.293 C 192.020 188.977,186.977 184.930,187.954 184.930 C 188.126 184.930,190.764 186.518,193.815 188.459 M153.472 189.552 C 154.508 195.092,155.711 196.142,161.814 196.831 C 166.908 197.405,167.761 197.643,164.837 197.675 C 161.260 197.715,157.875 196.952,154.709 195.392 C 153.627 194.859,153.073 194.718,152.666 194.872 C 152.359 194.988,151.265 195.321,150.236 195.612 C 147.934 196.262,148.114 195.937,150.977 194.273 C 152.525 193.374,152.997 192.974,152.902 192.645 C 152.222 190.309,152.119 186.718,152.732 186.718 C 152.847 186.718,153.180 187.993,153.472 189.552 M190.683 188.912 C 191.804 189.557,193.904 190.762,195.350 191.590 C 196.797 192.418,198.521 193.469,199.182 193.926 C 199.842 194.383,201.648 195.481,203.193 196.367 C 205.981 197.965,205.880 198.216,202.937 196.998 C 200.555 196.012,196.569 193.638,190.549 189.620 C 187.606 187.655,187.693 187.191,190.683 188.912 M189.465 193.477 C 189.395 194.347,189.157 195.452,188.935 195.933 C 188.713 196.414,188.346 197.554,188.118 198.467 C 187.494 200.967,186.684 203.587,186.197 204.679 C 185.916 205.310,185.806 206.034,185.884 206.734 C 186.038 208.100,185.194 209.210,183.512 209.852 C 182.391 210.281,181.635 210.173,182.383 209.692 C 182.908 209.355,182.271 208.949,181.210 208.944 C 179.539 208.936,179.053 209.878,176.863 217.369 C 175.134 223.282,175.637 222.547,173.334 222.520 C 170.399 222.486,168.290 221.332,167.938 219.568 C 167.850 219.131,167.502 217.625,167.163 216.220 C 166.824 214.815,166.319 212.225,166.040 210.463 C 165.724 208.464,165.243 206.557,164.759 205.384 C 163.794 203.043,163.794 203.036,164.874 204.082 C 165.862 205.040,166.083 205.672,167.308 211.062 C 167.749 213.001,168.260 214.955,168.443 215.404 C 168.626 215.853,168.912 217.014,169.077 217.985 C 169.565 220.848,170.414 221.967,172.099 221.967 C 174.474 221.967,175.062 218.992,173.436 215.199 C 172.664 213.399,171.466 206.869,172.194 208.429 C 172.358 208.780,172.815 209.757,173.209 210.600 C 173.603 211.443,174.112 213.225,174.340 214.559 C 174.567 215.894,174.853 217.088,174.973 217.213 C 175.224 217.473,176.375 215.174,177.517 212.133 C 178.657 209.098,179.129 208.429,180.137 208.428 C 182.105 208.424,184.027 207.382,184.781 205.908 C 185.156 205.175,187.739 195.765,187.739 195.133 C 187.739 194.446,188.515 191.740,188.815 191.378 C 189.312 190.779,189.605 191.726,189.465 193.477 M231.404 192.273 C 232.054 194.612,231.543 196.957,229.389 201.533 C 227.364 205.834,225.621 213.419,226.196 215.424 C 226.321 215.859,226.225 215.815,225.701 215.198 C 225.343 214.777,225.046 214.367,225.041 214.288 C 225.036 214.209,224.045 213.308,222.838 212.286 C 218.801 208.866,218.397 203.421,222.219 203.933 C 226.972 204.571,226.656 204.742,229.117 200.199 C 229.788 198.962,230.396 196.600,230.396 195.233 C 230.396 190.540,224.886 192.727,224.580 197.541 C 224.333 201.434,225.408 202.674,225.909 199.074 C 226.216 196.867,226.789 196.126,227.473 197.048 C 228.740 198.754,226.803 203.774,225.108 203.176 C 222.875 202.387,222.770 197.298,224.918 193.987 C 226.615 191.372,230.844 190.255,231.404 192.273 M194.106 197.711 C 194.147 199.087,193.282 201.541,191.570 204.904 C 190.342 207.314,189.549 209.281,189.020 211.225 C 188.598 212.777,187.514 216.031,186.611 218.454 C 185.708 220.878,184.829 223.436,184.659 224.138 C 184.249 225.831,183.982 226.067,183.767 224.925 C 183.490 223.446,183.819 222.138,185.445 218.253 C 186.993 214.555,187.739 212.180,187.739 210.957 C 187.739 209.746,188.764 206.866,190.549 203.062 C 192.104 199.747,192.608 198.386,193.247 195.785 L 193.435 195.019 193.761 196.041 C 193.939 196.603,194.095 197.355,194.106 197.711 M154.751 195.938 C 156.019 196.380,155.710 196.606,153.576 196.796 C 151.519 196.980,149.820 197.607,149.036 198.474 C 148.402 199.175,148.769 199.120,151.861 198.052 L 154.544 197.125 155.752 197.599 L 156.960 198.073 154.703 198.267 C 153.301 198.387,152.091 198.646,151.510 198.951 C 150.996 199.221,149.467 199.966,148.112 200.607 C 143.955 202.574,139.490 207.340,139.468 209.834 C 139.453 211.566,137.731 213.338,133.466 216.009 C 127.490 219.750,126.894 220.223,124.888 222.809 C 124.321 223.540,122.455 225.582,120.741 227.347 C 119.027 229.112,116.150 232.187,114.348 234.180 C 112.370 236.369,110.599 238.080,109.878 238.499 C 109.222 238.881,108.167 239.589,107.535 240.072 C 103.943 242.816,100.886 243.364,94.508 242.407 C 92.392 242.090,88.505 241.760,85.441 241.640 C 80.696 241.452,79.605 241.323,75.990 240.519 C 72.294 239.696,69.794 239.309,60.920 238.186 C 59.374 237.991,56.443 237.541,54.406 237.187 C 52.369 236.833,49.036 236.257,46.999 235.906 C 44.962 235.556,42.454 235.092,41.426 234.876 C 40.399 234.660,39.128 234.483,38.602 234.483 C 38.076 234.483,37.427 234.323,37.161 234.128 C 36.099 233.352,39.316 232.216,41.690 232.528 C 42.292 232.607,44.336 232.799,46.232 232.953 C 48.129 233.108,51.290 233.460,53.257 233.735 C 55.223 234.011,58.327 234.405,60.153 234.612 C 61.980 234.818,65.888 235.398,68.838 235.901 C 76.565 237.218,77.047 237.282,79.379 237.287 C 80.981 237.291,81.938 237.450,83.338 237.944 C 86.124 238.927,88.968 239.553,91.415 239.723 C 92.625 239.807,95.039 240.055,96.780 240.275 C 103.147 241.079,103.934 240.725,110.683 234.021 C 113.468 231.254,116.117 228.444,116.569 227.774 C 117.822 225.922,126.746 216.784,128.843 215.205 C 129.861 214.439,132.991 211.471,135.798 208.610 C 144.526 199.716,146.490 198.234,152.269 196.182 C 153.952 195.584,153.783 195.601,154.751 195.938 M234.624 200.739 C 234.185 204.115,232.965 209.175,232.193 210.821 L 231.698 211.877 231.850 210.473 C 231.934 209.700,232.394 207.344,232.874 205.236 C 233.353 203.129,233.997 200.144,234.305 198.603 C 235.019 195.036,235.205 196.279,234.624 200.739 M259.093 197.919 C 259.368 198.389,259.871 199.769,260.211 200.984 C 260.883 203.380,261.336 204.408,266.870 216.092 C 268.899 220.377,270.822 224.575,271.142 225.422 C 271.463 226.269,271.961 227.361,272.248 227.849 C 272.536 228.337,273.304 229.943,273.955 231.418 C 275.180 234.190,278.086 240.319,278.921 241.890 C 279.183 242.382,279.690 243.565,280.049 244.520 C 280.871 246.709,282.879 250.442,283.825 251.542 C 285.104 253.029,287.276 258.659,286.767 259.168 C 286.651 259.284,285.232 257.576,284.297 256.194 C 283.964 255.702,283.051 254.602,282.267 253.750 C 281.484 252.897,280.420 251.518,279.903 250.685 C 279.386 249.852,277.991 248.076,276.804 246.740 C 274.817 244.503,271.264 238.550,271.264 237.456 C 271.264 237.123,268.610 231.457,265.385 224.904 C 264.140 222.375,262.529 218.870,261.806 217.114 C 261.082 215.358,260.154 213.262,259.744 212.457 C 258.430 209.879,256.903 206.310,256.334 204.486 C 255.650 202.299,255.399 202.198,254.507 203.753 C 254.120 204.428,253.335 205.506,252.763 206.147 C 247.311 212.268,241.397 222.074,239.309 228.456 C 238.365 231.340,236.572 237.686,236.140 239.669 C 235.645 241.944,235.416 241.751,235.592 239.208 C 235.760 236.767,235.868 236.308,237.538 230.907 C 240.157 222.437,244.471 214.626,250.587 207.280 C 252.043 205.530,253.576 203.365,254.158 202.235 C 255.482 199.666,255.553 199.680,256.468 202.682 C 256.902 204.108,261.053 213.816,262.270 216.251 C 262.823 217.358,263.421 218.723,263.598 219.285 C 263.776 219.847,264.062 220.479,264.233 220.690 C 264.404 220.900,265.144 222.079,265.878 223.308 C 267.835 226.587,268.383 225.987,266.519 222.605 C 266.055 221.762,265.048 219.636,264.281 217.880 C 263.514 216.124,261.944 212.618,260.790 210.089 C 256.590 200.877,256.059 199.109,257.040 197.611 C 257.648 196.682,258.443 196.802,259.093 197.919 M80.560 198.105 C 80.645 198.327,80.715 199.073,80.715 199.762 C 80.715 200.881,80.817 201.110,81.673 201.905 C 82.664 202.827,83.392 203.151,82.701 202.363 C 81.721 201.245,81.229 199.745,81.842 199.745 C 82.606 199.745,83.586 201.311,83.431 202.285 C 82.990 205.058,78.866 205.129,78.496 202.369 C 78.210 200.241,79.978 196.589,80.560 198.105 M269.390 199.571 C 269.759 200.299,270.507 202.082,271.053 203.535 C 271.599 204.988,272.346 206.769,272.714 207.494 C 273.591 209.222,275.615 214.125,275.500 214.240 C 275.290 214.450,273.830 212.360,273.427 211.273 C 273.186 210.622,272.594 209.342,272.113 208.429 C 271.180 206.661,268.864 200.881,268.578 199.612 C 268.484 199.193,268.348 198.635,268.276 198.372 C 268.034 197.490,268.697 198.204,269.390 199.571 M257.990 199.451 C 257.985 199.782,258.316 201.046,258.723 202.261 C 259.420 204.337,260.363 206.451,265.066 216.475 C 266.120 218.723,267.615 222.114,268.388 224.010 C 269.553 226.868,273.427 235.571,276.917 243.167 C 277.724 244.923,281.523 251.385,281.665 251.242 C 281.771 251.137,280.666 248.570,277.528 241.635 C 272.211 229.885,271.561 228.414,270.794 226.400 C 270.358 225.255,269.776 223.933,269.500 223.462 C 269.225 222.991,267.507 219.374,265.682 215.424 C 263.857 211.474,261.820 207.164,261.156 205.845 C 260.491 204.527,259.509 202.414,258.972 201.149 C 258.410 199.824,257.994 199.105,257.990 199.451 M267.647 203.501 C 267.942 204.233,268.720 205.900,269.376 207.205 C 270.396 209.235,271.520 212.003,271.520 212.484 C 271.520 212.734,267.691 206.118,267.271 205.144 C 266.380 203.074,266.112 201.030,266.561 199.728 C 266.738 199.215,266.805 199.374,266.943 200.639 C 267.035 201.481,267.351 202.770,267.647 203.501 M113.484 202.670 C 118.721 205.188,120.817 207.270,120.817 209.955 C 120.817 212.330,124.352 213.577,128.384 212.624 C 129.453 212.371,128.867 212.835,127.283 213.496 C 123.824 214.939,122.027 213.933,119.828 209.323 C 118.653 206.859,117.315 205.109,116.606 205.109 C 116.045 205.109,111.334 202.657,109.962 201.651 C 108.134 200.311,109.249 200.634,113.484 202.670 M207.789 201.787 C 208.219 202.261,208.236 202.697,208.045 208.108 C 207.932 211.305,207.846 214.840,207.853 215.964 C 207.873 219.176,208.226 227.363,208.340 227.249 C 208.766 226.824,208.921 222.353,208.659 218.094 C 208.374 213.485,208.486 210.473,208.941 210.473 C 209.362 210.473,209.418 211.416,209.498 219.796 L 209.579 228.225 208.659 229.502 C 208.153 230.204,207.142 231.871,206.413 233.206 C 204.689 236.360,202.526 239.799,200.688 242.309 C 199.879 243.413,198.560 245.498,197.757 246.941 C 196.290 249.577,195.773 250.351,192.452 254.885 C 191.461 256.237,190.149 258.084,189.535 258.989 C 186.388 263.632,180.508 265.024,171.047 263.366 C 169.383 263.074,167.371 262.836,166.577 262.837 C 165.234 262.839,162.777 262.637,152.388 261.671 C 150.154 261.463,147.223 261.068,145.875 260.793 C 144.526 260.518,141.469 260.062,139.080 259.781 C 121.478 257.706,114.678 256.828,112.261 256.319 C 111.277 256.111,108.519 255.658,106.130 255.312 C 100.939 254.559,96.814 253.749,96.483 253.418 C 95.675 252.610,100.237 251.611,102.494 252.102 C 103.230 252.261,106.590 252.554,109.962 252.752 C 113.333 252.950,116.487 253.229,116.971 253.372 C 117.454 253.515,119.523 253.810,121.568 254.028 C 127.619 254.673,136.110 255.913,138.442 256.492 C 140.387 256.974,141.055 257.013,144.848 256.866 L 149.082 256.702 153.149 257.954 C 157.625 259.332,159.334 259.659,167.816 260.765 C 181.659 262.569,184.104 261.945,187.720 255.683 C 188.166 254.911,189.615 252.784,190.938 250.958 C 192.262 249.132,194.060 246.430,194.933 244.955 C 195.806 243.480,197.696 240.420,199.133 238.155 C 204.152 230.241,204.399 229.238,203.973 218.519 C 203.622 209.688,204.598 202.967,206.416 201.694 C 207.169 201.166,207.232 201.170,207.789 201.787 M159.166 203.131 C 160.050 203.784,161.055 205.646,161.550 207.544 C 161.989 209.230,162.101 214.181,161.686 213.538 C 161.550 213.327,161.435 212.867,161.432 212.516 C 161.405 209.696,159.393 204.056,157.994 202.879 C 157.021 202.060,158.003 202.271,159.166 203.131 M68.049 202.709 C 68.915 203.041,68.078 203.321,66.205 203.326 C 63.339 203.333,61.053 203.721,60.294 204.329 C 59.936 204.617,59.125 205.127,58.492 205.463 C 57.216 206.142,55.222 208.145,53.900 210.076 C 52.842 211.622,52.578 211.212,53.519 209.483 C 54.770 207.185,57.985 204.335,60.281 203.489 C 62.515 202.665,66.811 202.234,68.049 202.709 M305.399 203.226 C 319.673 207.998,333.985 222.359,341.027 238.974 C 342.605 242.698,342.607 243.016,341.032 239.719 C 332.539 221.940,321.590 210.774,306.092 204.086 C 302.350 202.471,302.058 202.109,305.399 203.226 M156.450 204.113 C 158.091 204.560,159.127 205.784,158.301 206.299 C 158.126 206.409,156.297 206.636,154.237 206.803 C 150.648 207.096,150.024 207.248,147.829 208.374 C 147.378 208.605,147.691 207.638,148.303 206.911 C 150.114 204.759,153.966 203.436,156.450 204.113 M87.641 205.629 C 88.397 205.775,90.396 206.112,92.082 206.377 C 110.483 209.271,118.791 210.992,120.106 212.182 C 120.877 212.880,120.615 213.021,119.476 212.520 C 118.879 212.257,117.356 211.852,116.092 211.620 C 114.828 211.388,111.207 210.676,108.046 210.036 C 104.885 209.397,101.437 208.773,100.383 208.651 C 99.330 208.528,96.973 208.153,95.147 207.817 C 93.321 207.482,89.832 206.884,87.395 206.489 C 84.645 206.044,83.143 205.701,83.436 205.586 C 84.139 205.309,86.084 205.329,87.641 205.629 M70.526 209.900 C 71.678 210.612,74.427 211.156,77.905 211.360 C 81.551 211.575,82.245 211.796,83.483 213.138 C 86.482 216.393,89.830 226.097,89.039 229.247 C 88.867 229.932,88.841 229.940,87.098 229.841 C 84.414 229.690,83.778 228.960,82.792 224.904 C 82.295 222.861,80.492 218.351,79.416 216.458 C 78.022 214.008,75.024 211.716,72.588 211.239 C 70.385 210.807,69.725 210.480,68.238 209.082 C 66.014 206.990,65.706 205.975,67.858 207.827 C 68.820 208.655,70.020 209.588,70.526 209.900 M211.784 213.027 C 211.911 215.907,212.100 219.757,212.202 221.584 C 212.410 225.295,212.324 228.352,212.010 228.352 C 211.476 228.352,210.594 214.533,210.845 210.089 C 211.124 205.158,211.485 206.290,211.784 213.027 M66.890 209.562 C 67.767 210.015,70.718 213.403,70.461 213.660 C 70.407 213.713,69.561 213.248,68.579 212.626 C 64.194 209.846,61.377 209.787,60.524 212.456 C 60.356 212.981,59.951 213.698,59.624 214.049 C 58.218 215.561,57.012 219.202,56.200 224.393 C 55.914 226.220,55.617 228.093,55.540 228.557 C 55.419 229.283,55.323 229.376,54.839 229.230 C 51.765 228.299,51.584 224.053,54.290 216.347 C 55.382 213.236,55.409 213.203,58.140 211.634 C 62.233 209.282,65.056 208.614,66.890 209.562 M158.500 212.209 C 159.067 212.976,159.680 214.356,160.197 216.028 C 160.642 217.467,161.059 218.592,161.123 218.528 C 161.231 218.420,160.892 216.827,160.517 215.678 C 160.430 215.414,160.646 215.677,160.996 216.262 C 162.403 218.616,163.329 219.749,164.401 220.429 C 165.650 221.221,165.489 221.456,163.700 221.456 C 160.870 221.456,159.132 219.706,158.216 215.931 C 157.981 214.966,157.447 213.466,157.029 212.598 C 155.815 210.075,156.741 209.830,158.500 212.209 M183.017 212.069 C 185.491 213.713,185.773 214.223,183.841 213.558 C 183.081 213.297,182.095 212.895,181.651 212.665 L 180.843 212.248 180.329 213.084 C 179.138 215.022,178.479 219.397,179.061 221.494 C 179.625 223.525,180.902 222.720,182.740 219.175 C 185.022 214.775,185.166 215.088,183.375 220.555 C 182.089 224.481,182.068 224.521,181.324 224.521 C 178.390 224.521,177.101 222.195,177.898 218.338 C 178.231 216.726,179.870 211.550,180.248 210.920 C 180.483 210.527,181.052 210.763,183.017 212.069 M297.517 211.621 C 301.736 212.432,307.373 214.787,311.877 217.618 C 312.931 218.281,314.368 219.149,315.070 219.549 C 318.979 221.771,328.171 232.518,330.139 237.165 C 331.565 240.533,331.488 240.811,329.894 238.047 C 322.402 225.059,313.243 217.171,301.296 213.416 C 296.351 211.862,295.525 211.752,288.523 211.730 C 285.142 211.718,282.491 211.661,282.632 211.601 C 284.197 210.943,294.059 210.956,297.517 211.621 M78.416 211.907 C 78.416 211.986,79.002 212.702,79.719 213.497 C 80.435 214.292,81.262 215.460,81.557 216.092 C 81.852 216.724,82.533 218.161,83.070 219.285 C 83.606 220.409,84.417 222.794,84.870 224.585 C 85.736 228.002,85.953 228.390,86.216 226.989 C 86.436 225.816,86.030 223.837,84.950 220.817 C 83.869 217.797,83.833 217.501,84.666 218.519 C 85.516 219.555,85.473 218.947,84.571 217.170 C 83.361 214.789,82.359 213.603,80.957 212.892 C 79.358 212.082,78.416 211.717,78.416 211.907 M95.354 213.488 C 97.862 216.056,96.487 219.070,92.734 219.231 C 91.067 219.303,91.012 219.193,91.644 217.048 C 91.944 216.030,92.261 214.853,92.348 214.432 C 92.560 213.406,93.075 214.061,93.654 216.092 C 94.260 218.220,94.508 218.217,94.507 216.079 C 94.507 214.633,94.385 213.977,94.000 213.346 C 93.252 212.118,94.104 212.208,95.354 213.488 M221.475 213.750 C 224.416 215.615,225.634 219.044,223.927 220.648 L 223.341 221.199 221.513 219.475 C 218.823 216.939,218.079 214.878,219.344 213.474 C 219.887 212.872,220.143 212.905,221.475 213.750 M297.308 214.677 C 298.834 216.140,298.818 215.260,297.687 234.874 C 297.164 243.963,296.574 245.731,292.774 249.614 C 291.570 250.845,290.490 251.852,290.375 251.852 C 289.673 251.852,290.396 250.556,292.095 248.773 C 295.410 245.293,295.940 243.231,296.559 231.418 C 296.695 228.819,296.932 225.313,297.085 223.627 C 297.238 221.941,297.414 219.987,297.476 219.285 C 297.642 217.390,296.894 216.254,294.699 215.068 C 292.692 213.982,292.749 213.706,294.951 213.845 C 296.280 213.928,296.669 214.065,297.308 214.677 M275.155 217.373 C 279.236 218.851,279.401 219.083,283.492 229.119 C 284.895 232.561,286.558 236.621,287.188 238.143 C 289.243 243.109,289.327 243.666,288.499 246.777 C 287.105 252.012,286.942 254.465,287.873 256.204 C 288.033 256.504,288.114 256.799,288.053 256.860 C 287.992 256.921,287.613 256.250,287.212 255.369 C 286.277 253.316,286.234 250.219,287.088 246.402 C 287.667 243.811,287.638 242.438,286.978 241.124 C 286.801 240.773,286.426 240.026,286.144 239.464 C 285.862 238.902,285.549 237.983,285.449 237.422 C 285.201 236.036,285.039 235.845,284.678 236.519 C 284.415 237.011,284.350 236.753,284.213 234.670 C 283.963 230.864,280.313 222.136,278.690 221.463 C 277.614 221.018,276.407 221.482,275.228 222.796 L 274.269 223.864 273.823 223.313 C 273.578 223.010,273.182 221.984,272.943 221.032 C 272.595 219.647,272.280 219.058,271.362 218.077 C 269.467 216.051,270.815 215.801,275.155 217.373 M295.245 216.764 C 296.232 217.455,296.552 218.637,296.552 221.591 C 296.552 224.874,296.392 224.840,295.016 221.258 C 293.404 217.062,292.764 216.615,292.207 219.297 C 291.883 220.858,291.959 221.302,293.362 226.019 C 294.699 230.513,293.928 232.507,290.438 233.588 C 289.867 233.765,289.894 233.689,290.761 232.677 C 292.937 230.134,292.504 226.415,289.558 222.351 C 289.050 221.649,288.633 220.795,288.633 220.454 L 288.633 219.834 289.272 220.434 C 289.812 220.942,289.911 220.967,289.911 220.596 C 289.911 218.246,293.588 215.604,295.245 216.764 M189.527 217.762 C 189.527 217.838,189.001 219.047,188.359 220.450 C 186.912 223.606,186.984 224.002,188.607 221.810 C 191.192 218.317,193.232 217.834,195.861 220.095 C 200.557 224.132,200.419 231.493,195.543 237.049 C 194.624 238.096,193.197 239.931,192.373 241.127 C 188.460 246.800,185.139 249.410,179.326 251.378 C 175.232 252.764,174.825 252.171,178.860 250.699 C 184.029 248.812,188.122 245.604,189.712 242.195 C 190.561 240.374,190.322 239.861,187.500 237.462 C 185.842 236.051,185.126 235.246,184.710 234.321 C 183.864 232.440,183.796 232.353,183.025 232.146 C 181.973 231.865,181.207 231.029,180.577 229.475 C 180.269 228.717,179.909 228.097,179.777 228.097 C 179.645 228.097,178.217 227.522,176.604 226.820 C 171.665 224.670,171.361 224.869,172.708 229.374 C 175.333 238.151,171.309 244.061,164.613 241.264 C 163.338 240.731,163.548 240.613,165.262 240.899 C 172.355 242.084,175.060 236.268,171.415 227.673 C 170.430 225.348,169.777 224.958,166.652 224.821 C 163.851 224.699,162.296 225.230,161.413 226.611 L 160.871 227.458 161.005 226.692 C 161.079 226.271,161.216 225.696,161.310 225.415 C 161.404 225.134,161.158 225.421,160.762 226.054 L 160.043 227.203 159.851 226.084 C 159.640 224.865,159.046 223.780,158.551 223.712 C 158.379 223.688,158.927 223.601,159.770 223.519 L 161.303 223.369 159.004 222.930 C 156.010 222.358,144.034 220.950,141.965 220.927 C 139.900 220.904,139.034 220.607,139.974 220.244 C 142.032 219.450,145.180 219.709,159.132 221.819 C 161.450 222.169,165.185 222.639,167.433 222.863 C 172.838 223.400,174.714 223.896,179.090 225.942 C 183.548 228.028,183.392 227.886,184.807 231.144 C 186.460 234.954,188.095 237.012,190.469 238.273 C 192.660 239.437,195.764 237.598,196.096 234.939 C 196.183 234.235,196.483 233.571,196.936 233.078 C 198.513 231.361,198.569 230.455,197.285 227.380 C 196.668 225.904,196.293 224.522,196.164 223.256 C 195.785 219.521,190.850 218.413,189.159 221.683 L 188.780 222.416 190.066 222.039 C 192.354 221.369,192.190 221.712,189.400 223.434 C 187.180 224.804,186.700 225.453,186.520 227.330 C 186.115 231.543,189.397 234.077,191.995 231.558 C 193.279 230.315,194.227 229.711,195.451 229.360 C 196.585 229.035,196.349 229.702,194.898 230.926 C 194.199 231.516,193.560 232.207,193.480 232.461 C 192.995 233.988,189.721 234.540,187.717 233.434 C 184.602 231.714,184.418 228.126,187.090 221.201 C 188.050 218.713,189.527 216.628,189.527 217.762 M300.891 219.430 C 299.903 224.636,299.225 234.769,299.525 239.834 C 299.768 243.943,299.726 245.341,299.342 245.952 C 298.769 246.864,299.478 223.205,300.108 220.395 C 300.696 217.771,301.361 216.952,300.891 219.430 M306.275 218.547 C 314.965 221.128,316.390 224.838,311.305 231.647 C 310.319 232.967,309.177 234.788,308.766 235.693 L 308.020 237.338 305.670 237.177 C 304.378 237.088,302.976 237.120,302.554 237.247 L 301.788 237.479 302.810 237.667 C 306.037 238.260,307.696 238.642,307.948 238.851 C 308.314 239.153,308.544 238.861,309.577 236.782 C 310.743 234.433,312.024 232.339,313.558 230.268 C 315.886 227.127,316.280 225.859,315.581 223.753 C 314.826 221.482,316.117 222.104,317.368 224.615 C 318.341 226.566,318.217 227.844,316.995 228.476 C 316.570 228.695,315.747 229.761,314.880 231.214 C 314.100 232.522,312.839 234.458,312.079 235.517 C 311.319 236.577,310.313 238.128,309.843 238.964 C 306.422 245.055,302.975 249.202,299.203 251.766 L 297.129 253.176 295.691 252.723 C 293.863 252.147,293.884 251.971,295.821 251.630 C 296.684 251.478,297.754 251.150,298.199 250.900 C 299.395 250.231,304.459 244.764,305.492 243.029 C 305.983 242.203,306.699 241.184,307.081 240.765 C 307.930 239.836,307.915 239.816,306.629 240.160 C 302.268 241.324,300.205 237.342,300.907 229.119 C 301.081 227.082,301.237 224.243,301.254 222.811 C 301.302 218.606,302.642 217.468,306.275 218.547 M285.836 223.016 C 288.342 226.382,289.017 228.725,288.139 231.002 C 287.661 232.241,288.208 234.448,290.119 238.996 C 291.384 242.009,292.297 244.700,292.053 244.700 C 291.248 244.700,287.205 234.034,286.848 230.968 C 286.579 228.665,286.063 227.110,284.444 223.725 C 283.670 222.106,283.270 220.931,283.270 220.277 L 283.271 219.285 283.756 220.079 C 284.022 220.516,284.958 221.837,285.836 223.016 M216.507 224.540 C 215.023 228.664,214.958 228.938,214.172 234.355 C 213.436 239.433,212.760 242.760,212.149 244.317 L 211.748 245.338 211.904 243.303 C 212.201 239.418,215.942 222.454,216.897 220.664 L 217.497 219.540 217.573 220.453 C 217.623 221.048,217.252 222.473,216.507 224.540 M278.740 223.052 C 282.335 227.547,283.751 232.254,282.650 236.052 C 282.309 237.228,281.993 238.649,281.948 239.210 L 281.864 240.230 281.036 238.643 C 280.580 237.770,279.863 236.190,279.442 235.132 C 279.022 234.073,278.168 232.193,277.546 230.953 C 275.355 226.592,275.067 224.053,276.607 222.678 C 277.639 221.756,277.713 221.769,278.740 223.052 M242.009 228.416 C 241.455 233.857,239.791 242.941,239.416 242.566 C 239.084 242.234,241.013 229.789,241.787 227.267 C 242.067 226.355,242.166 226.867,242.009 228.416 M322.902 230.896 C 324.590 232.652,327.743 236.882,328.585 238.519 C 329.809 240.902,329.097 243.176,326.996 243.592 C 325.019 243.983,324.343 243.491,322.812 240.550 C 322.246 239.461,321.704 238.570,321.608 238.570 C 321.512 238.570,320.749 237.984,319.912 237.268 C 317.227 234.972,315.983 234.659,316.954 236.523 C 317.253 237.095,317.496 237.991,317.495 238.514 C 317.495 239.036,317.853 240.695,318.292 242.199 C 319.480 246.273,319.106 246.873,315.763 246.257 C 311.261 245.427,309.811 243.209,311.952 240.426 C 313.224 238.774,315.568 235.193,317.389 232.122 C 319.546 228.483,320.400 228.293,322.902 230.896 M266.845 233.161 C 267.830 233.981,268.627 234.939,269.166 235.951 C 270.065 237.638,270.297 238.697,269.470 237.341 C 269.165 236.841,268.155 236.005,267.000 235.297 C 264.585 233.817,262.653 232.034,262.429 231.078 L 262.259 230.355 263.802 231.134 C 264.650 231.563,266.020 232.475,266.845 233.161 M302.678 232.391 C 300.859 233.864,303.609 236.409,306.817 236.220 C 309.082 236.086,309.331 235.121,307.100 235.121 C 305.037 235.121,304.710 234.685,306.275 234.021 L 307.356 233.561 306.366 232.745 C 305.194 231.779,303.621 231.628,302.678 232.391 M123.641 232.958 C 125.526 233.967,125.223 238.734,123.242 239.231 C 120.673 239.876,119.327 237.947,120.591 235.430 C 121.817 232.989,122.566 232.382,123.641 232.958 M257.253 238.348 C 256.557 240.648,255.868 243.218,255.722 244.061 C 255.576 244.904,255.249 246.686,254.995 248.020 C 254.306 251.646,254.399 256.492,255.269 262.197 C 257.328 275.706,261.106 284.036,268.943 292.350 C 270.009 293.480,271.363 294.988,271.951 295.700 C 274.060 298.250,283.017 303.729,287.896 305.453 C 289.074 305.869,290.652 306.454,291.402 306.752 C 294.850 308.124,307.626 307.776,310.660 306.227 C 313.541 304.758,313.504 302.449,310.479 294.899 C 309.459 292.354,308.536 289.989,308.427 289.644 C 308.318 289.299,307.282 287.516,306.124 285.681 C 304.965 283.847,303.716 281.751,303.348 281.024 C 302.859 280.060,302.403 279.562,301.667 279.186 C 300.122 278.398,299.750 277.333,300.509 275.866 C 301.196 274.537,300.572 274.039,297.651 273.586 C 294.438 273.088,290.305 269.221,292.986 269.221 C 294.153 269.221,295.634 270.046,295.130 270.415 C 294.455 270.908,294.852 271.223,298.291 272.914 C 302.239 274.857,303.404 276.228,305.623 281.553 C 306.280 283.129,307.430 285.683,308.179 287.229 C 308.928 288.774,310.126 291.512,310.842 293.313 C 311.558 295.113,312.365 296.895,312.635 297.272 C 312.905 297.648,313.436 298.934,313.813 300.128 C 315.104 304.211,316.068 305.208,317.141 303.571 C 317.373 303.217,318.554 302.283,319.765 301.496 C 320.976 300.708,322.656 299.527,323.499 298.870 C 324.342 298.213,325.593 297.292,326.279 296.823 C 327.219 296.180,328.024 295.210,329.557 292.877 C 331.611 289.747,331.951 289.681,330.365 292.720 C 327.791 297.651,321.985 303.188,315.964 306.453 C 301.849 314.108,282.174 309.915,269.344 296.519 C 256.937 283.564,251.093 266.797,252.885 249.298 C 253.286 245.382,253.398 245.597,253.284 250.064 C 253.229 252.241,253.232 253.678,253.290 253.257 C 253.349 252.835,253.572 251.226,253.787 249.681 C 254.522 244.382,255.906 239.195,257.515 235.703 C 258.715 233.100,258.653 233.726,257.253 238.348 M265.627 235.737 C 266.490 236.197,266.502 236.227,266.440 237.743 C 266.366 239.565,266.706 240.984,267.496 242.151 C 268.673 243.888,269.406 242.968,268.336 241.096 C 267.046 238.840,268.021 238.491,269.430 240.704 C 269.807 241.296,270.661 242.303,271.328 242.941 L 272.542 244.101 272.543 246.891 C 272.545 251.625,273.086 252.525,276.762 253.912 C 277.948 254.360,279.047 254.881,279.204 255.071 C 279.583 255.527,277.888 255.028,273.308 253.332 C 271.411 252.630,268.997 251.882,267.944 251.669 C 263.575 250.787,262.900 250.397,262.661 248.613 C 262.486 247.310,263.173 243.050,264.033 240.105 C 264.476 238.588,264.635 237.526,264.560 236.590 C 264.440 235.084,264.425 235.097,265.627 235.737 M261.191 236.638 C 261.097 237.262,260.452 240.028,259.757 242.786 C 259.062 245.544,258.493 248.080,258.493 248.421 C 258.493 248.763,258.378 249.042,258.238 249.042 C 257.442 249.042,258.269 244.069,259.883 239.144 C 261.114 235.386,261.485 234.676,261.191 236.638 M314.956 238.192 C 313.018 241.579,313.235 243.336,315.794 244.990 C 318.813 246.942,319.117 245.851,316.428 242.711 C 315.544 241.680,315.531 241.282,316.347 240.311 C 317.053 239.473,317.135 238.742,316.690 237.258 C 316.294 235.936,316.226 235.973,314.956 238.192 M151.163 238.668 C 151.626 238.909,152.042 239.245,152.086 239.413 C 152.130 239.581,152.279 240.204,152.418 240.796 L 152.670 241.873 151.750 241.150 C 149.156 239.112,146.547 238.896,141.574 240.309 C 135.895 241.922,133.869 241.980,131.677 240.589 C 130.260 239.691,130.262 239.469,131.683 239.975 C 133.873 240.755,136.985 240.432,143.934 238.702 C 146.915 237.959,149.778 237.946,151.163 238.668 M55.837 242.938 C 58.841 243.866,60.084 244.559,62.492 246.650 C 64.944 248.779,65.363 249.039,68.438 250.341 C 71.445 251.615,75.569 251.050,77.777 249.063 C 78.327 248.568,84.578 246.488,85.514 246.488 C 86.202 246.488,86.225 246.741,85.609 247.539 C 85.350 247.874,84.808 249.010,84.405 250.064 L 83.671 251.980 83.396 250.720 C 83.006 248.928,82.750 248.987,80.183 251.462 C 73.064 258.324,65.421 256.710,57.668 246.708 C 56.801 245.589,55.540 244.278,54.866 243.793 C 52.870 242.360,53.154 242.110,55.837 242.938 M157.282 244.027 C 158.723 244.380,160.275 244.934,160.730 245.259 L 161.558 245.849 159.918 245.926 C 157.951 246.019,155.751 245.085,154.278 243.531 C 153.581 242.796,153.525 242.676,154.023 242.987 C 154.374 243.205,155.841 243.673,157.282 244.027 M333.370 244.191 C 335.739 250.431,336.409 252.954,337.026 257.962 C 337.519 261.964,337.398 262.125,336.672 258.435 C 336.030 255.175,334.795 249.842,334.210 247.811 C 333.390 244.959,330.921 244.999,325.028 247.958 C 323.621 248.664,321.896 249.416,321.196 249.629 C 320.496 249.841,318.602 250.638,316.986 251.400 C 315.370 252.162,312.554 253.403,310.728 254.159 C 308.819 254.949,307.006 255.885,306.464 256.361 C 305.185 257.483,303.812 257.804,300.894 257.665 C 297.450 257.501,296.227 256.945,298.723 256.679 C 300.858 256.451,303.787 255.474,308.515 253.413 C 310.434 252.576,313.672 251.178,315.709 250.307 C 317.746 249.435,320.964 247.979,322.861 247.072 C 324.757 246.164,327.162 245.139,328.205 244.794 C 329.248 244.448,330.570 243.883,331.142 243.537 C 332.508 242.714,332.848 242.814,333.370 244.191 M222.681 244.152 C 223.413 244.616,219.593 246.003,216.542 246.380 C 214.207 246.669,213.537 247.290,211.881 250.702 C 210.897 252.730,209.728 254.571,209.712 254.118 C 209.707 253.982,211.320 249.211,212.269 246.552 C 212.522 245.843,212.689 245.722,213.407 245.722 C 213.870 245.722,215.381 245.420,216.766 245.052 C 218.152 244.684,219.630 244.294,220.051 244.184 C 221.098 243.913,222.282 243.898,222.681 244.152 M88.115 245.658 C 88.297 246.044,88.651 247.025,88.902 247.838 C 89.529 249.866,91.025 252.221,91.146 251.369 C 91.244 250.678,90.354 248.042,89.606 246.807 C 89.182 246.107,89.164 245.977,89.496 245.977 C 90.254 245.977,92.707 251.365,92.717 253.052 C 92.720 253.588,92.682 253.598,91.882 253.263 C 91.421 253.071,89.733 252.791,88.130 252.641 C 84.729 252.324,84.329 252.104,85.793 251.357 L 86.845 250.820 86.849 248.462 C 86.854 245.015,87.324 243.974,88.115 245.658 M311.149 247.023 C 312.071 247.615,312.977 247.912,314.747 248.203 C 317.875 248.718,317.947 248.877,315.420 249.679 C 312.490 250.609,309.992 250.065,308.696 248.215 C 307.419 246.391,308.981 245.632,311.149 247.023 M332.424 248.595 C 333.467 249.642,334.301 251.853,334.654 254.512 C 334.804 255.648,335.201 257.146,335.535 257.841 C 337.127 261.151,335.021 264.775,332.027 263.878 C 330.372 263.383,329.769 262.177,329.372 258.567 C 328.664 252.149,327.664 249.931,325.962 251.005 C 322.783 253.010,322.590 260.983,325.670 263.047 L 326.564 263.646 325.287 263.461 C 320.650 262.789,318.600 261.070,318.008 257.354 C 317.726 255.583,317.104 253.895,316.732 253.895 C 316.625 253.895,316.649 254.421,316.786 255.063 C 317.102 256.543,317.005 256.620,315.831 255.824 C 314.590 254.981,313.723 255.001,312.483 255.899 C 311.381 256.697,308.882 257.628,308.604 257.344 C 307.727 256.446,313.762 253.455,319.984 251.705 C 324.251 250.505,325.511 250.038,327.259 249.009 C 329.952 247.425,331.160 247.328,332.424 248.595 M264.112 253.090 C 268.140 254.137,270.697 254.650,274.585 255.192 C 278.813 255.782,281.244 258.294,281.220 262.051 C 281.202 265.046,279.796 265.950,269.488 269.595 L 266.051 270.811 265.463 270.080 C 263.797 268.008,261.848 257.361,262.984 256.530 C 263.652 256.042,266.540 256.111,270.157 256.701 C 271.866 256.980,274.108 257.283,275.138 257.375 C 277.197 257.559,278.312 257.991,278.507 258.682 C 278.577 258.929,278.763 259.939,278.922 260.926 C 279.343 263.550,280.204 264.339,280.204 262.100 C 280.204 257.974,278.634 256.888,271.266 255.920 C 269.088 255.634,266.845 255.273,266.284 255.117 C 265.722 254.961,264.219 254.858,262.945 254.889 C 259.704 254.966,256.107 253.518,256.513 252.299 C 256.800 251.439,258.409 251.606,264.112 253.090 M320.817 253.105 C 320.030 253.334,320.055 253.902,320.982 256.833 C 321.337 257.957,321.708 259.623,321.806 260.536 L 321.984 262.197 322.484 261.303 C 323.461 259.557,322.961 253.094,321.839 252.964 C 321.628 252.939,321.169 253.003,320.817 253.105 M84.414 255.521 C 84.953 255.914,84.879 255.981,82.512 257.245 C 80.750 258.187,81.038 258.353,84.674 258.493 C 87.813 258.614,87.932 258.637,86.845 258.920 C 83.648 259.751,81.992 259.657,79.076 258.478 C 75.849 257.173,75.749 256.961,78.352 256.959 C 80.512 256.957,82.121 256.618,82.432 256.098 C 82.621 255.782,83.491 255.197,83.795 255.180 C 83.874 255.176,84.152 255.329,84.414 255.521 M72.884 258.216 C 77.169 260.334,78.524 260.611,83.471 260.385 C 87.972 260.179,88.527 260.470,85.553 261.476 C 80.740 263.103,74.442 261.838,69.796 258.312 C 66.530 255.834,67.974 255.789,72.884 258.216 M259.518 262.324 C 260.410 266.319,261.316 271.213,261.291 271.903 C 261.240 273.327,259.185 266.465,258.614 262.963 C 258.290 260.971,258.105 255.953,258.408 257.344 C 258.469 257.625,258.969 259.866,259.518 262.324 M318.135 261.482 C 319.540 262.229,320.402 262.782,320.051 262.712 C 319.700 262.641,318.263 262.338,316.858 262.039 C 310.702 260.727,307.030 260.409,303.204 260.857 C 301.059 261.108,301.403 260.745,304.245 259.756 C 305.961 259.158,306.821 259.010,308.581 259.007 C 310.450 259.004,310.845 258.928,311.239 258.492 C 311.700 257.984,311.713 257.987,313.642 259.052 C 314.708 259.641,316.731 260.734,318.135 261.482 M257.858 263.602 C 258.220 265.639,258.787 268.110,259.119 269.093 C 259.450 270.077,259.801 271.485,259.898 272.224 C 259.995 272.962,260.272 273.812,260.515 274.111 L 260.956 274.656 263.748 273.708 C 265.283 273.187,267.605 272.194,268.908 271.502 C 270.211 270.809,271.391 270.243,271.530 270.243 C 271.763 270.243,276.945 268.017,279.310 266.902 C 279.872 266.637,281.079 266.148,281.992 265.815 C 284.093 265.051,284.205 264.613,282.488 263.875 L 281.172 263.309 281.774 262.655 C 283.106 261.208,285.426 260.650,286.335 261.558 C 287.899 263.122,286.334 265.622,283.142 266.658 C 282.158 266.977,280.319 267.790,279.055 268.464 C 277.791 269.138,275.722 270.113,274.457 270.630 C 270.580 272.217,263.337 275.921,262.816 276.583 C 262.166 277.410,262.189 277.652,263.094 279.445 C 263.921 281.083,264.248 281.446,263.780 280.208 C 263.002 278.146,264.598 278.747,265.539 280.870 C 265.857 281.587,267.016 283.344,268.116 284.773 C 269.215 286.203,270.485 287.908,270.937 288.562 C 272.088 290.229,272.685 290.774,273.159 290.593 C 273.847 290.329,273.613 289.678,272.333 288.299 C 270.361 286.173,267.994 282.848,266.891 280.653 C 265.704 278.292,265.714 277.954,266.924 279.569 C 267.397 280.199,267.875 280.715,267.986 280.715 C 268.098 280.715,268.952 281.890,269.883 283.325 C 271.532 285.866,274.604 289.214,274.786 288.668 C 274.886 288.368,273.736 286.588,272.288 284.802 C 271.330 283.619,269.640 280.776,268.231 277.974 L 267.430 276.381 268.517 275.695 C 272.669 273.072,283.877 267.433,284.939 267.433 C 285.531 267.433,285.568 267.515,285.568 268.828 C 285.568 270.127,285.638 270.287,286.590 271.167 C 288.168 272.628,287.993 274.135,285.851 277.522 C 285.318 278.365,284.310 280.089,283.611 281.354 C 281.843 284.555,277.257 292.328,276.216 293.888 C 274.911 295.845,275.078 296.265,277.847 297.993 C 291.517 306.520,293.194 306.477,293.926 297.581 C 294.781 287.203,294.350 279.012,292.827 276.687 C 291.968 275.378,291.381 278.912,292.202 280.446 C 292.579 281.150,292.121 281.138,291.408 280.424 C 290.909 279.925,290.874 279.694,291.012 277.742 C 291.176 275.417,291.002 275.148,290.187 276.467 C 289.005 278.379,289.714 280.555,291.994 282.018 C 294.174 283.417,294.684 285.040,293.992 288.378 C 293.861 289.010,293.580 291.580,293.368 294.089 C 292.843 300.270,292.113 302.475,291.078 300.998 C 290.886 300.723,289.194 299.724,287.318 298.779 C 280.895 295.541,279.574 293.973,281.071 291.361 C 281.407 290.774,282.772 288.225,284.104 285.696 C 285.435 283.167,287.229 279.984,288.090 278.623 C 288.951 277.261,289.655 275.964,289.655 275.741 C 289.655 272.738,292.334 272.406,294.113 275.188 C 295.707 277.679,295.777 279.460,295.048 298.955 C 294.815 305.210,295.073 307.091,295.913 305.260 C 296.285 304.450,296.965 304.379,299.881 304.842 C 301.566 305.110,303.275 305.210,304.695 305.125 C 306.423 305.021,306.704 305.047,306.003 305.248 C 305.511 305.388,303.557 305.589,301.660 305.694 L 298.212 305.884 300.144 306.077 C 301.267 306.190,303.124 306.154,304.576 305.992 C 306.880 305.735,307.591 305.777,307.221 306.146 C 305.662 307.706,294.304 307.019,289.566 305.079 C 272.928 298.267,263.032 286.574,257.815 267.561 C 257.622 266.858,257.293 264.985,257.085 263.397 C 256.289 257.348,256.768 257.474,257.858 263.602 M298.944 261.330 L 301.130 262.379 306.312 262.435 C 311.766 262.494,312.705 262.620,318.908 264.128 C 320.597 264.539,323.888 265.156,326.220 265.500 C 334.360 266.701,336.303 267.564,336.590 270.105 C 336.730 271.353,336.278 271.765,335.997 270.645 C 335.638 269.214,333.206 268.230,327.783 267.321 C 325.708 266.973,322.861 266.340,321.456 265.914 C 315.637 264.151,314.703 264.788,315.132 270.228 L 315.281 272.129 317.605 274.443 C 318.883 275.715,321.135 277.887,322.608 279.270 C 324.082 280.653,324.943 281.584,324.521 281.340 C 323.191 280.569,317.181 275.940,315.513 274.401 L 313.912 272.925 314.111 271.264 C 314.917 264.560,312.833 263.258,302.262 263.865 L 300.181 263.985 298.430 262.324 C 295.862 259.889,295.878 259.859,298.944 261.330 M244.592 270.498 C 248.620 289.108,263.922 308.908,280.025 316.348 C 288.757 320.382,300.942 322.168,308.174 320.472 C 310.983 319.813,315.369 318.546,317.121 317.887 C 319.304 317.065,319.541 317.232,317.587 318.215 C 305.680 324.205,287.902 322.942,275.990 315.261 C 275.147 314.717,273.538 313.727,272.414 313.061 C 259.487 305.396,246.678 285.817,243.673 269.132 C 242.578 263.051,243.171 263.932,244.592 270.498 M322.900 267.287 C 325.056 267.769,327.567 268.237,328.480 268.327 C 333.823 268.855,336.218 270.976,335.042 274.140 C 334.820 274.736,334.407 276.222,334.123 277.442 C 333.501 280.113,332.553 282.522,331.666 283.685 L 331.013 284.541 328.961 283.510 C 325.300 281.669,323.673 279.380,324.849 277.726 C 326.044 276.046,328.875 269.732,328.434 269.732 C 327.032 269.732,326.111 270.573,324.727 273.118 C 324.192 274.101,323.524 275.322,323.243 275.831 C 322.174 277.763,320.644 277.007,317.556 273.023 C 317.298 272.690,317.306 272.475,317.598 271.912 C 317.798 271.527,318.043 270.391,318.144 269.387 C 318.315 267.671,318.623 266.411,318.871 266.411 C 318.931 266.411,320.744 266.805,322.900 267.287 M319.335 268.902 C 317.915 271.932,318.460 274.524,320.793 275.827 L 321.873 276.430 322.528 275.827 C 324.948 273.599,324.498 269.365,321.689 267.933 C 320.268 267.208,320.095 267.279,319.335 268.902 M301.961 268.583 C 307.627 269.798,308.721 270.393,313.921 275.078 C 315.115 276.154,316.609 277.431,317.241 277.915 C 317.874 278.400,320.000 280.178,321.967 281.866 C 323.934 283.555,325.888 285.150,326.309 285.413 C 329.825 287.602,330.611 291.306,328.079 293.760 L 327.177 294.634 327.597 293.628 C 328.778 290.801,327.418 287.764,323.789 285.125 C 323.068 284.601,321.347 283.163,319.965 281.929 C 318.583 280.695,316.506 278.948,315.350 278.045 L 313.249 276.404 311.861 277.091 C 309.427 278.296,307.280 277.821,307.280 276.078 C 307.280 274.851,308.204 274.202,310.217 274.015 C 312.078 273.842,304.952 270.421,301.061 269.619 C 299.105 269.216,297.259 268.468,296.937 267.947 C 296.677 267.527,297.560 267.639,301.961 268.583 M281.992 270.059 C 281.992 270.151,282.564 271.102,283.262 272.172 C 285.291 275.279,285.199 276.314,282.599 279.614 C 281.914 280.484,280.607 282.371,279.693 283.808 C 276.726 288.476,274.809 290.865,273.633 291.356 C 272.586 291.794,271.394 291.374,270.530 290.262 C 269.340 288.731,265.843 283.615,265.389 282.742 C 264.942 281.881,264.112 280.965,264.112 281.333 C 264.112 282.121,267.818 287.731,269.703 289.797 C 270.351 290.507,271.318 291.628,271.852 292.287 C 272.386 292.947,272.977 293.487,273.165 293.487 C 273.825 293.487,277.500 289.267,278.525 287.333 C 279.077 286.292,279.893 284.981,280.339 284.419 C 281.288 283.223,284.110 278.752,285.121 276.842 C 286.403 274.421,285.922 271.852,284.104 271.403 C 283.715 271.307,283.081 270.927,282.695 270.560 C 282.308 270.192,281.992 269.967,281.992 270.059 M305.983 277.650 C 305.978 278.216,305.222 276.189,305.113 275.318 C 304.992 274.349,305.041 274.421,305.479 275.862 C 305.757 276.775,305.984 277.580,305.983 277.650 M300.021 278.579 C 300.251 279.371,300.461 280.744,300.487 281.630 C 300.521 282.794,300.666 283.387,301.009 283.766 C 301.270 284.055,301.354 284.291,301.195 284.291 C 301.036 284.291,300.717 284.004,300.487 283.653 C 299.889 282.739,299.617 282.862,299.617 284.047 C 299.617 285.862,300.559 286.400,304.725 286.968 C 306.291 287.181,306.720 287.573,307.141 289.177 C 307.340 289.932,308.131 291.871,308.900 293.487 C 312.160 300.337,311.873 301.724,306.970 302.840 C 298.774 304.704,297.406 302.538,298.065 288.738 C 298.601 277.520,299.044 275.218,300.021 278.579 M310.754 279.055 C 313.457 279.055,313.938 279.119,314.405 279.542 C 315.169 280.233,315.145 280.886,314.375 280.347 C 312.976 279.367,310.743 280.078,310.458 281.594 C 310.100 283.506,311.307 284.302,313.861 283.838 C 315.585 283.524,315.548 283.599,313.474 284.635 C 311.412 285.665,311.282 285.635,310.432 283.948 C 308.580 280.272,308.199 280.541,309.722 284.449 C 311.326 288.566,311.681 289.568,311.428 289.270 C 311.124 288.910,306.596 279.433,306.385 278.714 L 306.210 278.118 306.926 278.586 C 307.521 278.976,308.165 279.055,310.754 279.055 M321.456 284.677 C 325.714 287.412,327.410 290.232,326.025 292.275 C 323.991 295.275,319.270 298.694,317.802 298.228 C 316.698 297.877,315.311 295.931,314.087 293.014 C 313.419 291.421,312.472 289.515,311.983 288.779 C 310.666 286.795,310.811 286.648,315.390 285.323 C 316.724 284.937,317.474 284.550,318.072 283.937 C 318.528 283.469,319.017 283.149,319.157 283.225 C 319.298 283.301,320.332 283.955,321.456 284.677 M281.442 298.141 C 282.377 298.715,284.513 299.972,286.189 300.933 C 289.430 302.793,289.590 302.984,287.231 302.172 C 284.217 301.135,279.595 298.309,278.033 296.549 L 277.522 295.973 278.632 296.535 C 279.242 296.844,280.506 297.567,281.442 298.141 " stroke="none" fill="#000000" fill-rule="evenodd"></path></g></svg>